<!-- Made By Pharap -->
<svg width="400" height = "320" xmlns="http://www.w3.org/2000/svg" xmlns:svg="http://www.w3.org/2000/svg">
	<!-- Image -->
	<g transform="scale(2,2) translate(5,5)">
		<!-- Connector -->
		<g fill="white" stroke="black" stroke-width="1" transform="translate(0,55)">
			<!-- Base -->
			<polygon points="0,0 187,0 187,33 100,33 100,37 87,37 87,33 0,33" />
			
			<!-- Top Row -->
			<g transform="translate(0,5)">
				<rect x="5" width="10" height="10" />
				<rect x="19" width="10" height="10" />
				<rect x="33" width="10" height="10" />
				<rect x="47" width="10" height="10" />
				<rect x="61" width="10" height="10" />
				<rect x="75" width="10" height="10" />
				<rect x="89" width="10" height="10" />
				<rect x="103" width="10" height="10" />
				<rect x="117" width="10" height="10" />
				<rect x="131" width="10" height="10" />
				<rect x="145" width="10" height="10" />
				<rect x="159" width="10" height="10" />
				<rect x="173" width="10" height="10" />
			</g>
			
			<!-- Bottom Row -->
			<g transform="translate(0,19)">
				<rect x="5" width="10" height="10" />
				<rect x="19" width="10" height="10" />
				<rect x="33" width="10" height="10" />
				<rect x="47" width="10" height="10" />
				<rect x="61" width="10" height="10" />
				<rect x="75" width="10" height="10" />
				<rect x="89" width="10" height="10" />
				<rect x="103" width="10" height="10" />
				<rect x="117" width="10" height="10" />
				<rect x="131" width="10" height="10" />
				<rect x="145" width="10" height="10" />
				<rect x="159" width="10" height="10" />
				<rect x="173" width="10" height="10" />
			</g>
		</g>
		<!-- Labels -->
<!-- 		<g font-size="10" font-family="sans-serif" fill="black" stroke="none" style="writing-mode: tb;"> -->
		<g font-size="10" font-family="sans-serif" fill="black" stroke="none">
			<!-- Top Labels -->
			<g transform="translate(5,50)">
				<text x="5" transform="rotate(-90, 5, 0)" dominant-baseline="central">EXT 1</text>
				<text x="19" transform="rotate(-90, 19, 0)" dominant-baseline="central">EXT 3</text>
				<text x="33" transform="rotate(-90, 33, 0)" dominant-baseline="central">EXT 5</text>
				<text x="47" transform="rotate(-90, 47, 0)" dominant-baseline="central">EXT 7</text>
				<text x="61" transform="rotate(-90, 61, 0)" dominant-baseline="central">EXT 9</text>
				<text x="75" transform="rotate(-90, 75, 0)" dominant-baseline="central">EXT 11</text>
				<text x="89" transform="rotate(-90, 89, 0)" dominant-baseline="central">EXT 13</text>
				<text x="103" transform="rotate(-90, 103, 0)" dominant-baseline="central">EXT 15</text>
				<text x="117" transform="rotate(-90, 117, 0)" dominant-baseline="central">EXT 17</text>
				<text x="131" transform="rotate(-90, 131, 0)" dominant-baseline="central">I2C CLK</text>
				<text x="145" transform="rotate(-90, 145, 0)" dominant-baseline="central">SWD CLK</text>
				<text x="159" transform="rotate(-90, 159, 0)" dominant-baseline="central">RESET</text>
				<text x="173" transform="rotate(-90, 173, 0)" dominant-baseline="central">GND</text>
			</g>
			
			<!-- Bottom Labels -->
			<g transform="translate(5,95)" text-anchor="end">
				<text x="5" transform="rotate(-90, 5, 0)" dominant-baseline="central">EXT 0</text>
				<text x="19" transform="rotate(-90, 19, 0)" dominant-baseline="central">EXT 2</text>
				<text x="33" transform="rotate(-90, 33, 0)" dominant-baseline="central">EXT 4</text>
				<text x="47" transform="rotate(-90, 47, 0)" dominant-baseline="central">EXT 6</text>
				<text x="61" transform="rotate(-90, 61, 0)" dominant-baseline="central">EXT 8</text>
				<text x="75" transform="rotate(-90, 75, 0)" dominant-baseline="central">EXT 10</text>
				<text x="89" transform="rotate(-90, 89, 0)" dominant-baseline="central">EXT 12</text>
				<text x="103" transform="rotate(-90, 103, 0)" dominant-baseline="central">EXT 14</text>
				<text x="117" transform="rotate(-90, 117, 0)" dominant-baseline="central">EXT 16</text>
				<text x="131" transform="rotate(-90, 131, 0)" dominant-baseline="central">I2C SDA</text>
				<text x="145" transform="rotate(-90, 145, 0)" dominant-baseline="central">SWD IO</text>
				<text x="159" transform="rotate(-90, 159, 0)" dominant-baseline="central">AUDIO OUT</text>
				<text x="173" transform="rotate(-90, 173, 0)" dominant-baseline="central">3V3</text>
			</g>
		</g>
	</g>
</svg>