<!-- Made By Pharap -->
<svg width="400" height = "320" xmlns="http://www.w3.org/2000/svg" xmlns:svg="http://www.w3.org/2000/svg">
	<!-- Image -->
	<g transform="scale(2,2) translate(5,5)">
		<!-- Connector -->
		<g fill="white" stroke="black" stroke-width="1" transform="translate(0,55)">
			<!-- Base -->
			<polygon points="0,0 187,0 187,33 100,33 100,37 87,37 87,33 0,33" />
			
			<!-- Top Row -->
			<g transform="translate(0,5)">
				<rect x="5" width="10" height="10" />
				<rect x="19" width="10" height="10" />
				<rect x="33" width="10" height="10" />
				<rect x="47" width="10" height="10" />
				<rect x="61" width="10" height="10" />
				<rect x="75" width="10" height="10" />
				<rect x="89" width="10" height="10" />
				<rect x="103" width="10" height="10" />
				<rect x="117" width="10" height="10" />
				<rect x="131" width="10" height="10" />
				<rect x="145" width="10" height="10" />
				<rect x="159" width="10" height="10" />
				<rect x="173" width="10" height="10" />
			</g>
			
			<!-- Bottom Row -->
			<g transform="translate(0,19)">
				<rect x="5" width="10" height="10" />
				<rect x="19" width="10" height="10" />
				<rect x="33" width="10" height="10" />
				<rect x="47" width="10" height="10" />
				<rect x="61" width="10" height="10" />
				<rect x="75" width="10" height="10" />
				<rect x="89" width="10" height="10" />
				<rect x="103" width="10" height="10" />
				<rect x="117" width="10" height="10" />
				<rect x="131" width="10" height="10" />
				<rect x="145" width="10" height="10" />
				<rect x="159" width="10" height="10" />
				<rect x="173" width="10" height="10" />
			</g>
		</g>
		<!-- Labels -->
		<g font-size="10" font-family="sans-serif" fill="black" stroke="none" style="writing-mode: tb;">
			<!-- Top Labels -->
			<g transform="translate(5,5)">
				<text x="5">EXT 1</text>
				<text x="19">EXT 3</text>
				<text x="33">EXT 5</text>
				<text x="47">EXT 7</text>
				<text x="61">EXT 9</text>
				<text x="75">EXT 11</text>
				<text x="89">EXT 13</text>
				<text x="103">EXT 15</text>
				<text x="117">EXT 17</text>
				<text x="131">I2C CLK</text>
				<text x="145">SWD CLK</text>
				<text x="159">RESET</text>
				<text x="173">GND</text>
			</g>
			
			<!-- Bottom Labels -->
			<g transform="translate(5,95)">
				<text x="5">EXT 0</text>
				<text x="19">EXT 2</text>
				<text x="33">EXT 4</text>
				<text x="47">EXT 6</text>
				<text x="61">EXT 8</text>
				<text x="75">EXT 10</text>
				<text x="89">EXT 12</text>
				<text x="103">EXT 14</text>
				<text x="117">EXT 16</text>
				<text x="131">I2C SDA</text>
				<text x="145">SWD IO</text>
				<text x="159">AUDIO OUT</text>
				<text x="173">3V3</text>
			</g>
		</g>
	</g>
</svg>
